<?xml version="1.0" encoding="utf-8"?><svg viewBox="0 0 28 26" xmlns="http://www.w3.org/2000/svg" xmlns:xlink="http://www.w3.org/1999/xlink"><style>:root>svg{display:none}:root>svg:target{display:block}</style><svg viewBox="0 0 28 26" id="buy" xmlns="http://www.w3.org/2000/svg"><path d="M28 9.286h-4.755L18.25.45c-.247-.44-.785-.582-1.2-.319-.415.264-.549.835-.3 1.274l4.455 7.88H6.795l4.455-7.88c.249-.44.115-1.01-.3-1.274-.416-.264-.952-.12-1.2.319L4.755 9.286H0v1.857h1.9l2.222 12.584C4.354 25.044 5.44 26 6.702 26h14.595c1.263 0 2.348-.956 2.58-2.273l2.224-12.584H28V9.286Zm-5.843 14.1c-.077.439-.438.757-.86.757H6.703c-.422 0-.783-.318-.86-.758L3.678 11.143h20.642l-2.164 12.243Z"/></svg><svg viewBox="0 0 22 16" id="watch" xmlns="http://www.w3.org/2000/svg"><path d="M11 5a3 3 0 1 0 0 6 3 3 0 0 0 0-6Zm0 8a5 5 0 1 1 0-10 5 5 0 0 1 0 10ZM11 .5C6 .5 1.73 3.61 0 8c1.73 4.39 6 7.5 11 7.5s9.27-3.11 11-7.5C20.27 3.61 16 .5 11 .5Z"/></svg></svg>